<!-- Generated by IcoMoon.io -->
<svg version="1.1" xmlns="http://www.w3.org/2000/svg" width="16" height="16" viewBox="0 0 16 16">
    <title>node-scan</title>
    <style>
        path {
            fill: #000;
        }

        @media (prefers-color-scheme: dark) {
            path {
                fill: #fff;
            }
        }
    </style>
    <path
        d="M8 1.333c-3.683 0-6.667 2.983-6.667 6.667s2.983 6.667 6.667 6.667c3.683 0 6.667-2.983 6.667-6.667s-2.983-6.667-6.667-6.667zM12.23 11.757l-0.57-0.57c0.537-0.637 0.907-1.407 1.060-2.22 0.177-0.92 0.067-1.883-0.29-2.743-0.337-0.807-0.903-1.51-1.607-2.017 0.023-0.067 0.037-0.137 0.037-0.21 0-0.367-0.3-0.667-0.667-0.667-0.217 0-0.407 0.103-0.527 0.263-0.070-0.027-0.14-0.053-0.21-0.073-0.44-0.127-0.893-0.21-1.35-0.207-0.91-0.007-1.823 0.253-2.577 0.75-0.76 0.49-1.363 1.207-1.72 2.027s-0.47 1.743-0.32 2.617c0.15 0.877 0.563 1.697 1.167 2.337-0.583-0.66-0.967-1.487-1.087-2.35s0.017-1.757 0.387-2.537c0.37-0.78 0.97-1.447 1.703-1.887 0.73-0.447 1.59-0.663 2.437-0.63 0.423 0.010 0.84 0.103 1.243 0.23 0.063 0.023 0.127 0.050 0.19 0.073 0 0.017-0.003 0.030-0.003 0.047 0 0.367 0.3 0.667 0.667 0.667 0.14 0 0.27-0.043 0.38-0.12 0.623 0.483 1.113 1.133 1.393 1.867 0.293 0.777 0.363 1.637 0.18 2.44-0.153 0.693-0.487 1.343-0.953 1.87l-1.013-1.013c0.263-0.343 0.447-0.747 0.523-1.17 0.103-0.533 0.030-1.090-0.177-1.583-0.413-1-1.463-1.673-2.527-1.647-1.067 0-2.073 0.7-2.45 1.68-0.043 0.113-0.080 0.23-0.107 0.35-0.003 0-0.003 0-0.007 0-0.367 0-0.667 0.3-0.667 0.667s0.3 0.667 0.667 0.667c0.010 0 0.017-0.003 0.027-0.003 0.123 0.447 0.36 0.86 0.69 1.183-0.32-0.33-0.543-0.743-0.653-1.187 0.337-0.033 0.603-0.313 0.603-0.66 0-0.34-0.257-0.62-0.587-0.66 0.030-0.11 0.067-0.22 0.11-0.323 0.39-0.94 1.373-1.57 2.373-1.543 1 0.003 1.947 0.66 2.297 1.577 0.33 0.803 0.18 1.76-0.343 2.43l-1.050-1.050c0.060-0.13 0.097-0.273 0.097-0.427 0-0.553-0.447-1-1-1s-1 0.447-1 1 0.447 1 1 1c0.153 0 0.297-0.037 0.43-0.1l3.33 3.33c-1.003 0.89-2.317 1.437-3.76 1.437-3.123 0-5.667-2.543-5.667-5.667s2.543-5.667 5.667-5.667 5.667 2.543 5.667 5.667c0 1.443-0.547 2.757-1.437 3.757z">
    </path>
</svg>